<?xml version="1.0" encoding="UTF-8"?>
<svg width="1127px" height="350px" viewBox="0 0 1127 350" version="1.1" xmlns="http://www.w3.org/2000/svg" xmlns:xlink="http://www.w3.org/1999/xlink">
    <!-- Generator: Sketch 55.2 (78181) - https://sketchapp.com -->
    <title>Artboard</title>
    <desc>Created with Sketch.</desc>
    <g id="Artboard" stroke="none" stroke-width="1" fill="none" fill-rule="evenodd">
        <rect fill="#431190" x="0" y="0" width="1127" height="350"></rect>
        <path d="M-38.9624354,70 C-38.8410793,65.2671243 -38.3641044,60.3537885 -36.6898122,57.1736902 L-36.6898122,36.6510951 C-36.6898122,35.7071759 -36.1778641,34.8364542 -35.3483083,34.3601246 C-34.517642,33.88161 -33.4948563,33.88161 -32.6619689,34.3502921 L-14.9159155,44.3259011 C-10.470518,42.7887549 -4.87906748,41.9464381 1,41.9464381 C6.87797055,41.9464381 12.4705316,42.7887549 16.9159291,44.3259011 L34.660872,34.3502921 C35.4915383,33.88161 36.5176556,33.88161 37.3483219,34.3601246 C38.1789882,34.8364542 38.6887153,35.7049909 38.6887153,36.6510951 L38.6887153,57.1715052 C41.0368974,61.6325876 41.0310721,69.4976192 40.9910818,75.4952945 C41.0063259,76.0929771 41.0016112,76.6959873 40.9801202,77.2964085 C40.9791687,77.5355569 40.9786003,77.7702277 40.9786003,78 L40.9473525,78 C40.6988494,82.3468405 39.6275145,86.3922923 38.9607505,87.0833333 C36.7629933,85.9444444 32.367479,84.8055556 29.0708432,84.8055556 C31.2686004,87.0833333 32.367479,95.0555556 32.367479,98.4722222 C26.873086,96.1944444 23.5764503,97.3333333 21.3786931,99.6111111 C18.0820574,109.861111 3.79663576,111 0.5,111 C-2.79663576,111 -17.0820574,109.861111 -20.3786931,99.6111111 C-22.5764503,97.3333333 -26.9719646,96.1944444 -31.367479,98.4722222 C-31.367479,95.0555556 -30.2686004,87.0833333 -28.0708432,84.8055556 C-31.367479,84.8055556 -35.7629933,85.9444444 -37.9607505,87.0833333 C-39.0596291,85.9444444 -41.2573862,75.6944444 -39.0596291,70 C-39.0273471,70 -38.994949,70 -38.9624354,70 Z" id="Combined-Shape" fill-opacity="0.1" fill="#FFFFFF" fill-rule="nonzero"></path>
        <path d="M148.037565,164 C148.158921,159.267124 148.635896,154.353788 150.310188,151.17369 L150.310188,130.651095 C150.310188,129.707176 150.822136,128.836454 151.651692,128.360125 C152.482358,127.88161 153.505144,127.88161 154.338031,128.350292 L172.084085,138.325901 C176.529482,136.788755 182.120933,135.946438 188,135.946438 C193.877971,135.946438 199.470532,136.788755 203.915929,138.325901 L221.660872,128.350292 C222.491538,127.88161 223.517656,127.88161 224.348322,128.360125 C225.178988,128.836454 225.688715,129.704991 225.688715,130.651095 L225.688715,151.171505 C228.036897,155.632588 228.031072,163.497619 227.991082,169.495295 C228.006326,170.092977 228.001611,170.695987 227.98012,171.296408 C227.979169,171.535557 227.9786,171.770228 227.9786,172 L227.947353,172 C227.698849,176.34684 226.627515,180.392292 225.96075,181.083333 C223.762993,179.944444 219.367479,178.805556 216.070843,178.805556 C218.2686,181.083333 219.367479,189.055556 219.367479,192.472222 C213.873086,190.194444 210.57645,191.333333 208.378693,193.611111 C205.082057,203.861111 190.796636,205 187.5,205 C184.203364,205 169.917943,203.861111 166.621307,193.611111 C164.42355,191.333333 160.028035,190.194444 155.632521,192.472222 C155.632521,189.055556 156.7314,181.083333 158.929157,178.805556 C155.632521,178.805556 151.237007,179.944444 149.03925,181.083333 C147.940371,179.944444 145.742614,169.694444 147.940371,164 C147.972653,164 148.005051,164 148.037565,164 Z" id="Combined-Shape" fill-opacity="0.1" fill="#FFFFFF" fill-rule="nonzero"></path>
        <path d="M911.037565,194 C911.158921,189.267124 911.635896,184.353788 913.310188,181.17369 L913.310188,160.651095 C913.310188,159.707176 913.822136,158.836454 914.651692,158.360125 C915.482358,157.88161 916.505144,157.88161 917.338031,158.350292 L935.084085,168.325901 C939.529482,166.788755 945.120933,165.946438 951,165.946438 C956.877971,165.946438 962.470532,166.788755 966.915929,168.325901 L984.660872,158.350292 C985.491538,157.88161 986.517656,157.88161 987.348322,158.360125 C988.178988,158.836454 988.688715,159.704991 988.688715,160.651095 L988.688715,181.171505 C991.036897,185.632588 991.031072,193.497619 990.991082,199.495295 C991.006326,200.092977 991.001611,200.695987 990.98012,201.296408 C990.979169,201.535557 990.9786,201.770228 990.9786,202 L990.947353,202 C990.698849,206.34684 989.627515,210.392292 988.96075,211.083333 C986.762993,209.944444 982.367479,208.805556 979.070843,208.805556 C981.2686,211.083333 982.367479,219.055556 982.367479,222.472222 C976.873086,220.194444 973.57645,221.333333 971.378693,223.611111 C968.082057,233.861111 953.796636,235 950.5,235 C947.203364,235 932.917943,233.861111 929.621307,223.611111 C927.42355,221.333333 923.028035,220.194444 918.632521,222.472222 C918.632521,219.055556 919.7314,211.083333 921.929157,208.805556 C918.632521,208.805556 914.237007,209.944444 912.03925,211.083333 C910.940371,209.944444 908.742614,199.694444 910.940371,194 C910.972653,194 911.005051,194 911.037565,194 Z" id="Combined-Shape" fill-opacity="0.1" fill="#FFFFFF" fill-rule="nonzero"></path>
        <path d="M684.037565,-2 C684.158921,-6.73287573 684.635896,-11.6462115 686.310188,-14.8263098 L686.310188,-35.3489049 C686.310188,-36.2928241 686.822136,-37.1635458 687.651692,-37.6398754 C688.482358,-38.11839 689.505144,-38.11839 690.338031,-37.6497079 L708.084085,-27.6740989 C712.529482,-29.2112451 718.120933,-30.0535619 724,-30.0535619 C729.877971,-30.0535619 735.470532,-29.2112451 739.915929,-27.6740989 L757.660872,-37.6497079 C758.491538,-38.11839 759.517656,-38.11839 760.348322,-37.6398754 C761.178988,-37.1635458 761.688715,-36.2950091 761.688715,-35.3489049 L761.688715,-14.8284948 C764.036897,-10.3674124 764.031072,-2.50238083 763.991082,3.49529453 C764.006326,4.09297715 764.001611,4.69598725 763.98012,5.29640849 C763.979169,5.53555691 763.9786,5.77022775 763.9786,6 L763.947353,6 C763.698849,10.3468405 762.627515,14.3922923 761.96075,15.0833333 C759.762993,13.9444444 755.367479,12.8055556 752.070843,12.8055556 C754.2686,15.0833333 755.367479,23.0555556 755.367479,26.4722222 C749.873086,24.1944444 746.57645,25.3333333 744.378693,27.6111111 C741.082057,37.8611111 726.796636,39 723.5,39 C720.203364,39 705.917943,37.8611111 702.621307,27.6111111 C700.42355,25.3333333 696.028035,24.1944444 691.632521,26.4722222 C691.632521,23.0555556 692.7314,15.0833333 694.929157,12.8055556 C691.632521,12.8055556 687.237007,13.9444444 685.03925,15.0833333 C683.940371,13.9444444 681.742614,3.69444444 683.940371,-2 C683.972653,-2 684.005051,-2 684.037565,-2 Z" id="Combined-Shape" fill-opacity="0.1" fill="#FFFFFF" fill-rule="nonzero"></path>
        <path d="M511.037565,136 C511.158921,131.267124 511.635896,126.353788 513.310188,123.17369 L513.310188,102.651095 C513.310188,101.707176 513.822136,100.836454 514.651692,100.360125 C515.482358,99.88161 516.505144,99.88161 517.338031,100.350292 L535.084085,110.325901 C539.529482,108.788755 545.120933,107.946438 551,107.946438 C556.877971,107.946438 562.470532,108.788755 566.915929,110.325901 L584.660872,100.350292 C585.491538,99.88161 586.517656,99.88161 587.348322,100.360125 C588.178988,100.836454 588.688715,101.704991 588.688715,102.651095 L588.688715,123.171505 C591.036897,127.632588 591.031072,135.497619 590.991082,141.495295 C591.006326,142.092977 591.001611,142.695987 590.98012,143.296408 C590.979169,143.535557 590.9786,143.770228 590.9786,144 L590.947353,144 C590.698849,148.34684 589.627515,152.392292 588.96075,153.083333 C586.762993,151.944444 582.367479,150.805556 579.070843,150.805556 C581.2686,153.083333 582.367479,161.055556 582.367479,164.472222 C576.873086,162.194444 573.57645,163.333333 571.378693,165.611111 C568.082057,175.861111 553.796636,177 550.5,177 C547.203364,177 532.917943,175.861111 529.621307,165.611111 C527.42355,163.333333 523.028035,162.194444 518.632521,164.472222 C518.632521,161.055556 519.7314,153.083333 521.929157,150.805556 C518.632521,150.805556 514.237007,151.944444 512.03925,153.083333 C510.940371,151.944444 508.742614,141.694444 510.940371,136 C510.972653,136 511.005051,136 511.037565,136 Z" id="Combined-Shape" fill-opacity="0.1" fill="#FFFFFF" fill-rule="nonzero"></path>
        <path d="M765.037565,126 C765.158921,121.267124 765.635896,116.353788 767.310188,113.17369 L767.310188,92.6510951 C767.310188,91.7071759 767.822136,90.8364542 768.651692,90.3601246 C769.482358,89.88161 770.505144,89.88161 771.338031,90.3502921 L789.084085,100.325901 C793.529482,98.7887549 799.120933,97.9464381 805,97.9464381 C810.877971,97.9464381 816.470532,98.7887549 820.915929,100.325901 L838.660872,90.3502921 C839.491538,89.88161 840.517656,89.88161 841.348322,90.3601246 C842.178988,90.8364542 842.688715,91.7049909 842.688715,92.6510951 L842.688715,113.171505 C845.036897,117.632588 845.031072,125.497619 844.991082,131.495295 C845.006326,132.092977 845.001611,132.695987 844.98012,133.296408 C844.979169,133.535557 844.9786,133.770228 844.9786,134 L844.947353,134 C844.698849,138.34684 843.627515,142.392292 842.96075,143.083333 C840.762993,141.944444 836.367479,140.805556 833.070843,140.805556 C835.2686,143.083333 836.367479,151.055556 836.367479,154.472222 C830.873086,152.194444 827.57645,153.333333 825.378693,155.611111 C822.082057,165.861111 807.796636,167 804.5,167 C801.203364,167 786.917943,165.861111 783.621307,155.611111 C781.42355,153.333333 777.028035,152.194444 772.632521,154.472222 C772.632521,151.055556 773.7314,143.083333 775.929157,140.805556 C772.632521,140.805556 768.237007,141.944444 766.03925,143.083333 C764.940371,141.944444 762.742614,131.694444 764.940371,126 C764.972653,126 765.005051,126 765.037565,126 Z" id="Combined-Shape" fill-opacity="0.1" fill="#FFFFFF" fill-rule="nonzero"></path>
        <path d="M74.0375646,332 C74.1589207,327.267124 74.6358956,322.353788 76.3101878,319.17369 L76.3101878,298.651095 C76.3101878,297.707176 76.8221359,296.836454 77.6516917,296.360125 C78.482358,295.88161 79.5051437,295.88161 80.3380311,296.350292 L98.0840845,306.325901 C102.529482,304.788755 108.120933,303.946438 114,303.946438 C119.877971,303.946438 125.470532,304.788755 129.915929,306.325901 L147.660872,296.350292 C148.491538,295.88161 149.517656,295.88161 150.348322,296.360125 C151.178988,296.836454 151.688715,297.704991 151.688715,298.651095 L151.688715,319.171505 C154.036897,323.632588 154.031072,331.497619 153.991082,337.495295 C154.006326,338.092977 154.001611,338.695987 153.98012,339.296408 C153.979169,339.535557 153.9786,339.770228 153.9786,340 L153.947353,340 C153.698849,344.34684 152.627515,348.392292 151.96075,349.083333 C149.762993,347.944444 145.367479,346.805556 142.070843,346.805556 C144.2686,349.083333 145.367479,357.055556 145.367479,360.472222 C139.873086,358.194444 136.57645,359.333333 134.378693,361.611111 C131.082057,371.861111 116.796636,373 113.5,373 C110.203364,373 95.9179426,371.861111 92.6213069,361.611111 C90.4235497,359.333333 86.0280354,358.194444 81.632521,360.472222 C81.632521,357.055556 82.7313996,349.083333 84.9291568,346.805556 C81.632521,346.805556 77.2370067,347.944444 75.0392495,349.083333 C73.9403709,347.944444 71.7426138,337.694444 73.9403709,332 C73.9726529,332 74.005051,332 74.0375646,332 Z" id="Combined-Shape" fill-opacity="0.1" fill="#FFFFFF" fill-rule="nonzero"></path>
        <path d="M332.037565,49 C332.158921,44.2671243 332.635896,39.3537885 334.310188,36.1736902 L334.310188,15.6510951 C334.310188,14.7071759 334.822136,13.8364542 335.651692,13.3601246 C336.482358,12.88161 337.505144,12.88161 338.338031,13.3502921 L356.084085,23.3259011 C360.529482,21.7887549 366.120933,20.9464381 372,20.9464381 C377.877971,20.9464381 383.470532,21.7887549 387.915929,23.3259011 L405.660872,13.3502921 C406.491538,12.88161 407.517656,12.88161 408.348322,13.3601246 C409.178988,13.8364542 409.688715,14.7049909 409.688715,15.6510951 L409.688715,36.1715052 C412.036897,40.6325876 412.031072,48.4976192 411.991082,54.4952945 C412.006326,55.0929771 412.001611,55.6959873 411.98012,56.2964085 C411.979169,56.5355569 411.9786,56.7702277 411.9786,57 L411.947353,57 C411.698849,61.3468405 410.627515,65.3922923 409.96075,66.0833333 C407.762993,64.9444444 403.367479,63.8055556 400.070843,63.8055556 C402.2686,66.0833333 403.367479,74.0555556 403.367479,77.4722222 C397.873086,75.1944444 394.57645,76.3333333 392.378693,78.6111111 C389.082057,88.8611111 374.796636,90 371.5,90 C368.203364,90 353.917943,88.8611111 350.621307,78.6111111 C348.42355,76.3333333 344.028035,75.1944444 339.632521,77.4722222 C339.632521,74.0555556 340.7314,66.0833333 342.929157,63.8055556 C339.632521,63.8055556 335.237007,64.9444444 333.03925,66.0833333 C331.940371,64.9444444 329.742614,54.6944444 331.940371,49 C331.972653,49 332.005051,49 332.037565,49 Z" id="Combined-Shape" fill-opacity="0.1" fill="#FFFFFF" fill-rule="nonzero"></path>
        <path d="M1021.03756,59 C1021.15892,54.2671243 1021.6359,49.3537885 1023.31019,46.1736902 L1023.31019,25.6510951 C1023.31019,24.7071759 1023.82214,23.8364542 1024.65169,23.3601246 C1025.48236,22.88161 1026.50514,22.88161 1027.33803,23.3502921 L1045.08408,33.3259011 C1049.52948,31.7887549 1055.12093,30.9464381 1061,30.9464381 C1066.87797,30.9464381 1072.47053,31.7887549 1076.91593,33.3259011 L1094.66087,23.3502921 C1095.49154,22.88161 1096.51766,22.88161 1097.34832,23.3601246 C1098.17899,23.8364542 1098.68872,24.7049909 1098.68872,25.6510951 L1098.68872,46.1715052 C1101.0369,50.6325876 1101.03107,58.4976192 1100.99108,64.4952945 C1101.00633,65.0929771 1101.00161,65.6959873 1100.98012,66.2964085 C1100.97917,66.5355569 1100.9786,66.7702277 1100.9786,67 L1100.94735,67 C1100.69885,71.3468405 1099.62751,75.3922923 1098.96075,76.0833333 C1096.76299,74.9444444 1092.36748,73.8055556 1089.07084,73.8055556 C1091.2686,76.0833333 1092.36748,84.0555556 1092.36748,87.4722222 C1086.87309,85.1944444 1083.57645,86.3333333 1081.37869,88.6111111 C1078.08206,98.8611111 1063.79664,100 1060.5,100 C1057.20336,100 1042.91794,98.8611111 1039.62131,88.6111111 C1037.42355,86.3333333 1033.02804,85.1944444 1028.63252,87.4722222 C1028.63252,84.0555556 1029.7314,76.0833333 1031.92916,73.8055556 C1028.63252,73.8055556 1024.23701,74.9444444 1022.03925,76.0833333 C1020.94037,74.9444444 1018.74261,64.6944444 1020.94037,59 C1020.97265,59 1021.00505,59 1021.03756,59 Z" id="Combined-Shape" fill-opacity="0.1" fill="#FFFFFF" fill-rule="nonzero"></path>
        <path d="M373.037565,271 C373.158921,266.267124 373.635896,261.353788 375.310188,258.17369 L375.310188,237.651095 C375.310188,236.707176 375.822136,235.836454 376.651692,235.360125 C377.482358,234.88161 378.505144,234.88161 379.338031,235.350292 L397.084085,245.325901 C401.529482,243.788755 407.120933,242.946438 413,242.946438 C418.877971,242.946438 424.470532,243.788755 428.915929,245.325901 L446.660872,235.350292 C447.491538,234.88161 448.517656,234.88161 449.348322,235.360125 C450.178988,235.836454 450.688715,236.704991 450.688715,237.651095 L450.688715,258.171505 C453.036897,262.632588 453.031072,270.497619 452.991082,276.495295 C453.006326,277.092977 453.001611,277.695987 452.98012,278.296408 C452.979169,278.535557 452.9786,278.770228 452.9786,279 L452.947353,279 C452.698849,283.34684 451.627515,287.392292 450.96075,288.083333 C448.762993,286.944444 444.367479,285.805556 441.070843,285.805556 C443.2686,288.083333 444.367479,296.055556 444.367479,299.472222 C438.873086,297.194444 435.57645,298.333333 433.378693,300.611111 C430.082057,310.861111 415.796636,312 412.5,312 C409.203364,312 394.917943,310.861111 391.621307,300.611111 C389.42355,298.333333 385.028035,297.194444 380.632521,299.472222 C380.632521,296.055556 381.7314,288.083333 383.929157,285.805556 C380.632521,285.805556 376.237007,286.944444 374.03925,288.083333 C372.940371,286.944444 370.742614,276.694444 372.940371,271 C372.972653,271 373.005051,271 373.037565,271 Z" id="Combined-Shape" fill-opacity="0.1" fill="#FFFFFF" fill-rule="nonzero"></path>
        <path d="M115.037565,32 C115.158921,27.2671243 115.635896,22.3537885 117.310188,19.1736902 L117.310188,-1.34890487 C117.310188,-2.29282407 117.822136,-3.16354583 118.651692,-3.63987542 C119.482358,-4.11839002 120.505144,-4.11839002 121.338031,-3.64970792 L139.084085,6.32590111 C143.529482,4.78875491 149.120933,3.94643813 155,3.94643813 C160.877971,3.94643813 166.470532,4.78875491 170.915929,6.32590111 L188.660872,-3.64970792 C189.491538,-4.11839002 190.517656,-4.11839002 191.348322,-3.63987542 C192.178988,-3.16354583 192.688715,-2.29500907 192.688715,-1.34890487 L192.688715,19.1715052 C195.036897,23.6325876 195.031072,31.4976192 194.991082,37.4952945 C195.006326,38.0929771 195.001611,38.6959873 194.98012,39.2964085 C194.979169,39.5355569 194.9786,39.7702277 194.9786,40 L194.947353,40 C194.698849,44.3468405 193.627515,48.3922923 192.96075,49.0833333 C190.762993,47.9444444 186.367479,46.8055556 183.070843,46.8055556 C185.2686,49.0833333 186.367479,57.0555556 186.367479,60.4722222 C180.873086,58.1944444 177.57645,59.3333333 175.378693,61.6111111 C172.082057,71.8611111 157.796636,73 154.5,73 C151.203364,73 136.917943,71.8611111 133.621307,61.6111111 C131.42355,59.3333333 127.028035,58.1944444 122.632521,60.4722222 C122.632521,57.0555556 123.7314,49.0833333 125.929157,46.8055556 C122.632521,46.8055556 118.237007,47.9444444 116.03925,49.0833333 C114.940371,47.9444444 112.742614,37.6944444 114.940371,32 C114.972653,32 115.005051,32 115.037565,32 Z" id="Combined-Shape" fill-opacity="0.1" fill="#FFFFFF" fill-rule="nonzero"></path>
        <path d="M644.037565,255 C644.158921,250.267124 644.635896,245.353788 646.310188,242.17369 L646.310188,221.651095 C646.310188,220.707176 646.822136,219.836454 647.651692,219.360125 C648.482358,218.88161 649.505144,218.88161 650.338031,219.350292 L668.084085,229.325901 C672.529482,227.788755 678.120933,226.946438 684,226.946438 C689.877971,226.946438 695.470532,227.788755 699.915929,229.325901 L717.660872,219.350292 C718.491538,218.88161 719.517656,218.88161 720.348322,219.360125 C721.178988,219.836454 721.688715,220.704991 721.688715,221.651095 L721.688715,242.171505 C724.036897,246.632588 724.031072,254.497619 723.991082,260.495295 C724.006326,261.092977 724.001611,261.695987 723.98012,262.296408 C723.979169,262.535557 723.9786,262.770228 723.9786,263 L723.947353,263 C723.698849,267.34684 722.627515,271.392292 721.96075,272.083333 C719.762993,270.944444 715.367479,269.805556 712.070843,269.805556 C714.2686,272.083333 715.367479,280.055556 715.367479,283.472222 C709.873086,281.194444 706.57645,282.333333 704.378693,284.611111 C701.082057,294.861111 686.796636,296 683.5,296 C680.203364,296 665.917943,294.861111 662.621307,284.611111 C660.42355,282.333333 656.028035,281.194444 651.632521,283.472222 C651.632521,280.055556 652.7314,272.083333 654.929157,269.805556 C651.632521,269.805556 647.237007,270.944444 645.03925,272.083333 C643.940371,270.944444 641.742614,260.694444 643.940371,255 C643.972653,255 644.005051,255 644.037565,255 Z" id="Combined-Shape" fill-opacity="0.1" fill="#FFFFFF" fill-rule="nonzero"></path>
        <path d="M992.037565,348 C992.158921,343.267124 992.635896,338.353788 994.310188,335.17369 L994.310188,314.651095 C994.310188,313.707176 994.822136,312.836454 995.651692,312.360125 C996.482358,311.88161 997.505144,311.88161 998.338031,312.350292 L1016.08408,322.325901 C1020.52948,320.788755 1026.12093,319.946438 1032,319.946438 C1037.87797,319.946438 1043.47053,320.788755 1047.91593,322.325901 L1065.66087,312.350292 C1066.49154,311.88161 1067.51766,311.88161 1068.34832,312.360125 C1069.17899,312.836454 1069.68872,313.704991 1069.68872,314.651095 L1069.68872,335.171505 C1072.0369,339.632588 1072.03107,347.497619 1071.99108,353.495295 C1072.00633,354.092977 1072.00161,354.695987 1071.98012,355.296408 C1071.97917,355.535557 1071.9786,355.770228 1071.9786,356 L1071.94735,356 C1071.69885,360.34684 1070.62751,364.392292 1069.96075,365.083333 C1067.76299,363.944444 1063.36748,362.805556 1060.07084,362.805556 C1062.2686,365.083333 1063.36748,373.055556 1063.36748,376.472222 C1057.87309,374.194444 1054.57645,375.333333 1052.37869,377.611111 C1049.08206,387.861111 1034.79664,389 1031.5,389 C1028.20336,389 1013.91794,387.861111 1010.62131,377.611111 C1008.42355,375.333333 1004.02804,374.194444 999.632521,376.472222 C999.632521,373.055556 1000.7314,365.083333 1002.92916,362.805556 C999.632521,362.805556 995.237007,363.944444 993.03925,365.083333 C991.940371,363.944444 989.742614,353.694444 991.940371,348 C991.972653,348 992.005051,348 992.037565,348 Z" id="Combined-Shape" fill-opacity="0.1" fill="#FFFFFF" fill-rule="nonzero"></path>
    </g>
</svg>