<?xml version="1.0" encoding="UTF-8"?>
<svg width="586px" height="102px" viewBox="0 0 586 102" version="1.1" xmlns="http://www.w3.org/2000/svg" xmlns:xlink="http://www.w3.org/1999/xlink">
    <!-- Generator: Sketch 55.2 (78181) - https://sketchapp.com -->
    <title>Group 2</title>
    <desc>Created with Sketch.</desc>
    <g id="Brand" stroke="none" stroke-width="1" fill="none" fill-rule="evenodd">
        <g id="Sandbox" transform="translate(-67.000000, -63.000000)" fill="#FFFFFF" fill-rule="nonzero">
            <g id="logo-color">
                <g id="Group-2" transform="translate(67.000000, 63.000000)">
                    <path d="M125.429257,85.6005362 C125.429257,90.6568365 127.083933,92.1957105 129.841727,92.1957105 C133.040767,92.1957105 136.901679,89.0080429 139.328537,85.6005362 L142.417266,85.6005362 L142.417266,90.8766756 L137.122302,90.8766756 L139.769784,88.5683646 C135.908873,95.7131367 130.503597,100 123.884892,100 C116.935252,100 112.302158,96.152815 112.41247,85.4906166 L112.743405,63.8364611 L115.280576,66.3646113 L108,64.7158177 L108,61.308311 L124.436451,59 L125.760192,59.8793566 L125.318945,71.310992 L125.318945,85.6005362 L125.429257,85.6005362 Z M137.342926,99.6702413 L136.681055,90.2171582 L137.01199,63.8364611 L139.549161,66.4745308 L132.59952,64.8257373 L132.59952,61.7479893 L148.705036,59.1099196 L150.028777,59.9892761 L149.808153,71.4209115 L149.808153,98.1313673 L144.402878,93.075067 L154,95.0536193 L154,98.7908847 L137.342926,99.6702413 Z" id="Shape"></path>
                    <path d="M162.95283,99.8882834 C163.062893,96.2016349 163.172956,87.8228883 163.172956,82.6839237 L163.172956,77.9918256 C163.172956,73.5231608 163.172956,71.7356948 162.95283,68.4959128 L158,67.7138965 L158,64.4741144 L173.959119,59 L175.389937,59.893733 L176.160377,68.9427793 L176.160377,82.6839237 C176.160377,87.7111717 176.27044,96.2016349 176.380503,99.8882834 L162.95283,99.8882834 Z M180.012579,96.0899183 L180.012579,99.8882834 L158.77044,99.8882834 L158.77044,96.0899183 L166.254717,94.4141689 L172.418239,94.4141689 L180.012579,96.0899183 Z M200.044025,73.1880109 L200.044025,82.6839237 C200.044025,87.9346049 200.154088,96.2016349 200.264151,99.8882834 L187.166667,99.8882834 C187.27673,96.2016349 187.386792,87.9346049 187.386792,82.6839237 L187.386792,74.8637602 C187.386792,69.1662125 186.286164,67.0435967 182.654088,67.0435967 C179.132075,67.0435967 175.5,69.9482289 173.078616,73.0762943 L170.106918,73.0762943 L170.106918,67.8256131 L175.169811,67.8256131 L172.748428,70.1716621 C177.591195,62.7983651 182.323899,59.2234332 188.377358,59.2234332 C196.081761,59.1117166 200.044025,63.6920981 200.044025,73.1880109 Z M196.522013,94.4141689 L203.896226,96.0899183 L203.896226,99.8882834 L183.09434,99.8882834 L183.09434,96.0899183 L190.248428,94.4141689 L196.522013,94.4141689 Z M223.927673,73.6348774 L223.927673,82.7956403 C223.927673,88.0463215 224.037736,96.3133515 224.147799,100 L211.050314,100 C211.160377,96.3133515 211.27044,88.0463215 211.27044,82.7956403 L211.27044,74.8637602 C211.27044,68.719346 209.949686,67.0435967 206.647799,67.0435967 C203.235849,67.0435967 199.933962,69.3896458 196.852201,73.0762943 L193.990566,73.0762943 L193.990566,67.6021798 L199.713836,67.6021798 L196.41195,70.0599455 C202.13522,61.5694823 206.647799,59.1117166 212.150943,59.1117166 C220.295597,59.1117166 223.927673,63.8038147 223.927673,73.6348774 Z M220.40566,94.4141689 L228,96.0899183 L228,99.8882834 L207.198113,99.8882834 L207.198113,96.0899183 L213.91195,94.4141689 L220.40566,94.4141689 Z" id="Shape"></path>
                    <path d="M247.777778,77.9840426 C251.111111,76.9787234 256.888889,75.4148936 260.777778,74.5212766 L260.777778,77.9840426 C256.888889,78.9893617 252.555556,80.106383 250.111111,81.2234043 C246.444444,82.787234 244,85.5797872 244,89.3776596 C244,93.5106383 246.111111,95.4095745 248.888889,95.4095745 C250.444444,95.4095745 251.666667,94.7393617 254.333333,92.8404255 L257.555556,90.3829787 L258.444444,91.6117021 L255,95.2978723 C251,99.5425532 248.555556,102 242.666667,102 C236.333333,102 232,98.3138298 232,91.5 C232,85.8031915 235.222222,81.6702128 247.777778,77.9840426 Z M254,94.0691489 L254,73.6276596 C254,66.3670213 252.555556,64.2446809 247.444444,64.2446809 C245.444444,64.2446809 243.333333,64.4680851 239.777778,65.4734043 L245.333333,62.2340426 L244.777778,67.9308511 C244.555556,73.4042553 241.888889,75.5265957 238.777778,75.5265957 C235.888889,75.5265957 233.888889,74.0744681 233.333333,71.393617 C233.777778,64.5797872 240.333333,60 252,60 C262.444444,60 266.555556,64.4680851 266.555556,75.4148936 L266.555556,93.7340426 C266.555556,95.2978723 267.222222,96.0797872 268.444444,96.0797872 C269.333333,96.0797872 270,95.6329787 270.888889,94.2925532 L273,95.7446809 C271,100.212766 268.111111,101.888298 263.222222,101.888298 C257.666667,102 254.666667,99.0957447 254,94.0691489 Z" id="Shape"></path>
                    <path d="M279.893617,100 C280.002364,96.3032787 280.111111,87.9016393 280.111111,82.7486339 L280.111111,78.0437158 C280.111111,73.5628415 280.002364,71.7704918 279.893617,68.5218579 L275,67.7377049 L275,64.489071 L290.768322,59 L292.182033,59.8961749 L292.943262,68.9699454 L292.943262,82.7486339 C292.943262,87.7896175 293.052009,96.3032787 293.160757,100 L279.893617,100 Z M296.749409,96.1912568 L296.749409,100 L275.761229,100 L275.761229,96.1912568 L283.156028,94.510929 L289.245863,94.510929 L296.749409,96.1912568 Z M316.867612,73.226776 L316.867612,82.7486339 C316.867612,88.0136612 316.976359,96.3032787 317.085106,100 L303.926714,100 C304.035461,96.3032787 304.144208,88.0136612 304.144208,82.7486339 L304.144208,74.1229508 C304.144208,68.8579235 302.839243,66.9535519 299.685579,66.9535519 C296.858156,66.9535519 293.052009,69.0819672 289.898345,73.0027322 L287.179669,73.0027322 L287.179669,67.7377049 L292.617021,67.7377049 L289.572104,70.0901639 C295.118203,61.8005464 299.685579,59.1120219 305.449173,59.1120219 C312.300236,59.1120219 316.867612,63.704918 316.867612,73.226776 Z M313.170213,94.510929 L321,96.1912568 L321,100 L300.01182,100 L300.01182,96.1912568 L307.189125,94.510929 L313.170213,94.510929 Z" id="Shape"></path>
                    <path d="M335.474627,79.5478723 C335.474627,88.9308511 340.002985,94.1808511 346.740299,94.1808511 C350.60597,94.1808511 353.477612,92.393617 355.797015,89.6010638 L358.668657,92.1702128 C355.576119,98.8723404 349.722388,102 342.101493,102 C331.056716,102 322,94.8510638 322,81.1117021 C322,67.7074468 331.829851,60 343.868657,60 C352.373134,60 358.447761,65.3617021 359,71.9521277 C358.116418,74.856383 356.459701,76.1968085 353.58806,76.1968085 C350.385075,76.1968085 347.734328,74.1861702 347.402985,68.4893617 L346.629851,62.6808511 L352.483582,66.0319149 C349.943284,64.8031915 347.844776,64.2446809 345.304478,64.2446809 C340.555224,64.1329787 335.474627,68.4893617 335.474627,79.5478723 Z" id="Path"></path>
                    <path d="M369.174312,82.7486339 L369.174312,77.931694 C369.174312,73.4508197 369.06422,71.7704918 368.954128,68.5218579 L364,67.7377049 L364,64.489071 L379.963303,59 L381.394495,59.8961749 L382.165138,69.9781421 L382.165138,82.7486339 C382.165138,87.7896175 382.275229,96.3032787 382.385321,100 L369.06422,100 C369.06422,96.3032787 369.174312,87.9016393 369.174312,82.7486339 Z M364.66055,96.1912568 L372.366972,94.510929 L380.844037,94.510929 L388.550459,96.1912568 L388.550459,100 L364.66055,100 L364.66055,96.1912568 Z M376.110092,71.9945355 L382.165138,71.9945355 L381.06422,74.2349727 C382.495413,64.1530055 388.110092,59.1120219 392.954128,59.1120219 C396.477064,59.1120219 399.33945,61.1284153 400,65.1612022 C399.779817,69.4180328 397.46789,71.8825137 394.275229,71.8825137 C391.853211,71.8825137 389.981651,70.6502732 388,68.0737705 L385.688073,64.9371585 L388.990826,66.1693989 C386.12844,68.2978142 383.155963,72.6666667 382.165138,77.5956284 L376.220183,77.0355191 L376.220183,71.9945355 L376.110092,71.9945355 Z" id="Shape"></path>
                    <path d="M416.777778,77.9840426 C420.111111,76.9787234 425.888889,75.4148936 429.777778,74.5212766 L429.777778,77.9840426 C425.888889,78.9893617 421.555556,80.106383 419.111111,81.2234043 C415.444444,82.787234 413,85.5797872 413,89.3776596 C413,93.5106383 415.111111,95.4095745 417.888889,95.4095745 C419.444444,95.4095745 420.666667,94.7393617 423.333333,92.8404255 L426.555556,90.3829787 L427.444444,91.6117021 L424,95.2978723 C420,99.5425532 417.555556,102 411.666667,102 C405.333333,102 401,98.3138298 401,91.5 C401,85.8031915 404.222222,81.6702128 416.777778,77.9840426 Z M423,94.0691489 L423,73.6276596 C423,66.3670213 421.555556,64.2446809 416.444444,64.2446809 C414.444444,64.2446809 412.333333,64.4680851 408.777778,65.4734043 L414.333333,62.2340426 L413.777778,67.9308511 C413.555556,73.4042553 410.888889,75.5265957 407.777778,75.5265957 C404.888889,75.5265957 402.888889,74.0744681 402.333333,71.393617 C402.777778,64.5797872 409.333333,60 421,60 C431.444444,60 435.555556,64.4680851 435.555556,75.4148936 L435.555556,93.7340426 C435.555556,95.2978723 436.222222,96.0797872 437.444444,96.0797872 C438.333333,96.0797872 439,95.6329787 439.888889,94.2925532 L442,95.7446809 C440,100.212766 437.111111,101.888298 432.222222,101.888298 C426.777778,102 423.666667,99.0957447 423,94.0691489 Z" id="Shape"></path>
                    <path d="M448.190184,65.6521739 L443,65.6521739 L443,60.8695652 L452.607362,59.673913 L448.190184,61.9565217 C448.96319,52.826087 451.723926,48.3695652 455.147239,45.2173913 C459.343558,41.4130435 463.981595,40 468.619632,40 C473.147239,40 477.343558,41.4130435 478.337423,45.7608696 C478.337423,48.8043478 476.128834,51.0869565 472.595092,51.0869565 C469.834356,51.0869565 467.515337,49.4565217 465.306748,45.4347826 L463.319018,42.7173913 L471.269939,40.9782609 L472.153374,43.2608696 C471.490798,42.7173913 470.386503,42.173913 469.392638,42.173913 C466.631902,42.173913 464.423313,44.4565217 463.319018,46.1956522 C461,50 460.558282,55.5434783 461.220859,64.3478261 L461.220859,81.9565217 C461.220859,87.5 461.331288,93.1521739 461.441718,98.6956522 L448.079755,98.6956522 C448.190184,93.1521739 448.300613,87.5 448.300613,81.9565217 L448.300613,65.6521739 L448.190184,65.6521739 Z M467.515337,95 L467.515337,98.6956522 L443.662577,98.6956522 L443.662577,95 L451.613497,93.3695652 L459.895706,93.3695652 L467.515337,95 Z M469.613497,60.2173913 L469.613497,65.6521739 L454.705521,65.6521739 L454.705521,60.2173913 L469.613497,60.2173913 Z M473.478528,80.8695652 L473.478528,65.6521739 L467.625767,65.6521739 L467.625767,60.2173913 L477.895706,60.2173913 L474.472393,62.9347826 L479.662577,49.0217391 L486.730061,49.0217391 L486.509202,63.3695652 L486.509202,87.9347826 C486.509202,91.6304348 488.276074,93.3695652 490.595092,93.3695652 C492.030675,93.3695652 493.355828,92.7173913 495.01227,91.6304348 L497,93.5869565 C494.90184,97.6086957 491.03681,100 485.184049,100 C477.895706,100 473.588957,96.7391304 473.588957,88.9130435 C473.478528,86.0869565 473.478528,83.9130435 473.478528,80.8695652 Z M479.993865,60.2173913 L494.90184,60.2173913 L494.90184,65.6521739 L479.993865,65.6521739 L479.993865,60.2173913 Z" id="Shape"></path>
                    <path d="M537,77.2028671 C537,78.9900479 536.891813,80.2187346 536.567251,81.5591202 L505.517544,81.5591202 L505.517544,77.2028671 L520.339181,77.2028671 C524.125731,77.2028671 525.099415,75.7507828 525.099415,72.0647225 C525.099415,66.7031802 522.611111,64.0224091 519.690058,64.0224091 C516.336257,64.0224091 513.415205,67.7084694 513.415205,79.5485418 C513.415205,89.4897348 518.175439,94.0693854 524.125731,94.0693854 C528.345029,94.0693854 531.374269,92.2822047 533.754386,89.7131324 L536.459064,92.3939035 C533.21345,98.7607349 527.479532,102 519.798246,102 C508.222222,102 500,94.1810842 500,81.0006262 C500,67.373373 510.169591,60.0012524 520.447368,60.0012524 C531.049708,59.8895536 537,67.2616742 537,77.2028671 Z" id="Path"></path>
                    <path d="M564.110553,93.0588235 C567.979899,93.0588235 570.743719,90.2389706 573.286432,86.3345588 L574.281407,87.6360294 C570.301508,96.0955882 565.326633,100 558.140704,100 C548.964824,100 542,92.8419118 542,79.9356618 C542,67.0294118 550.733668,59.2205882 559.798995,59.2205882 C566.763819,59.2205882 570.190955,63.0165441 573.949749,70.0661765 L573.175879,71.5845588 C569.969849,67.7886029 567.648241,65.9448529 564.331658,65.9448529 C559.467337,65.9448529 555.708543,70.3915441 555.708543,79.8272059 C555.59799,88.3952206 559.135678,93.0588235 564.110553,93.0588235 Z M586,95.0110294 L586,98.6985294 L570.190955,99.5661765 L569.19598,92.5165441 L569.19598,66.1617647 L569.638191,65.2941176 L569.638191,48.7003676 L564,47.9411765 L564,44.5790441 L581.135678,41 L582.462312,41.7591912 L582.130653,52.8216912 L582.130653,98.5900735 L576.603015,92.8419118 L586,95.0110294 Z" id="Shape"></path>
                    <g id="Group">
                        <polygon id="Path" points="0.219148936 100 47.7744681 100 47.7744681 79.1208791 41.0904255 79.1208791 41.0904255 20.8791209 47.7744681 20.8791209 47.7744681 0 0.219148936 0 0.219148936 20.8791209 7.01276596 20.8791209 7.01276596 79.1208791 0.219148936 79.1208791"></polygon>
                        <polygon id="Path" points="55.3351064 100 102.890426 100 102.890426 79.1208791 96.0968085 79.1208791 96.0968085 20.8791209 102.890426 20.8791209 102.890426 0 55.3351064 0 55.3351064 20.8791209 62.1287234 20.8791209 62.1287234 40.6593407 52.8148936 40.6593407 52.8148936 57.6923077 62.1287234 57.8021978 62.1287234 79.1208791 55.3351064 79.1208791"></polygon>
                    </g>
                    <path d="M109,7 C109,6.30232558 109.116279,5.60465116 109.348837,5.02325581 C109.581395,4.44186047 109.930233,3.86046512 110.395349,3.39534884 C110.860465,2.93023256 111.44186,2.58139535 112.023256,2.34883721 C112.604651,2.11627907 113.302326,2 114,2 C114.697674,2 115.395349,2.11627907 115.976744,2.34883721 C116.55814,2.58139535 117.139535,2.93023256 117.604651,3.39534884 C118.069767,3.86046512 118.418605,4.44186047 118.651163,5.02325581 C118.883721,5.60465116 119,6.30232558 119,7 C119,7.69767442 118.883721,8.39534884 118.651163,8.97674419 C118.418605,9.55813953 118.069767,10.1395349 117.604651,10.6046512 C117.139535,11.0697674 116.55814,11.4186047 115.976744,11.6511628 C115.395349,11.8837209 114.697674,12 114,12 C113.302326,12 112.604651,11.8837209 112.023256,11.6511628 C111.44186,11.4186047 110.860465,11.0697674 110.395349,10.6046512 C109.930233,10.1395349 109.581395,9.55813953 109.348837,8.97674419 C109.116279,8.39534884 109,7.69767442 109,7 Z M109.930233,7 C109.930233,7.58139535 110.046512,8.04651163 110.27907,8.62790698 C110.511628,9.09302326 110.744186,9.55813953 111.209302,9.90697674 C111.55814,10.255814 112.023256,10.6046512 112.488372,10.8372093 C112.953488,11.0697674 113.534884,11.1860465 114.116279,11.1860465 C114.697674,11.1860465 115.162791,11.0697674 115.744186,10.8372093 C116.209302,10.6046512 116.674419,10.372093 117.023256,9.90697674 C117.372093,9.55813953 117.72093,9.09302326 117.953488,8.62790698 C118.186047,8.1627907 118.302326,7.58139535 118.302326,7 C118.302326,6.41860465 118.186047,5.95348837 117.953488,5.37209302 C117.72093,4.90697674 117.488372,4.44186047 117.023256,4.09302326 C116.674419,3.74418605 116.209302,3.39534884 115.744186,3.1627907 C115.27907,2.93023256 114.697674,2.81395349 114.116279,2.81395349 C113.534884,2.81395349 113.069767,2.93023256 112.488372,3.1627907 C112.023256,3.39534884 111.55814,3.62790698 111.209302,4.09302326 C110.860465,4.44186047 110.511628,4.90697674 110.27907,5.37209302 C110.046512,5.95348837 109.930233,6.53488372 109.930233,7 Z M116.906977,9.90697674 L114.697674,9.90697674 L113.418605,7.93023256 L113.418605,9.90697674 L111.674419,9.90697674 L111.674419,4.20930233 L114.232558,4.20930233 C114.813953,4.20930233 115.395349,4.3255814 115.744186,4.6744186 C116.093023,5.02325581 116.325581,5.48837209 116.325581,5.95348837 C116.325581,6.76744186 115.976744,7.34883721 115.162791,7.58139535 L116.906977,9.90697674 Z M113.418605,6.65116279 L113.651163,6.65116279 C114.232558,6.65116279 114.465116,6.41860465 114.465116,6.06976744 C114.465116,5.72093023 114.232558,5.48837209 113.651163,5.48837209 L113.418605,5.48837209 L113.418605,6.65116279 Z" id="Shape"></path>
                </g>
            </g>
        </g>
    </g>
</svg>