<?xml version="1.0" encoding="UTF-8"?>
<svg width="103px" height="100px" viewBox="0 0 103 100" version="1.1" xmlns="http://www.w3.org/2000/svg" xmlns:xlink="http://www.w3.org/1999/xlink">
    <!-- Generator: Sketch 55.2 (78181) - https://sketchapp.com -->
    <title>Group</title>
    <desc>Created with Sketch.</desc>
    <g id="Brand" stroke="none" stroke-width="1" fill="none" fill-rule="evenodd">
        <g id="Sandbox" transform="translate(-67.000000, -64.000000)" fill="#FFFFFF" fill-rule="nonzero">
            <g id="logo-color">
                <g id="Group" transform="translate(67.000000, 64.000000)">
                    <polygon id="Path" points="0.219148936 100 47.7744681 100 47.7744681 79.1208791 41.0904255 79.1208791 41.0904255 20.8791209 47.7744681 20.8791209 47.7744681 0 0.219148936 0 0.219148936 20.8791209 7.01276596 20.8791209 7.01276596 79.1208791 0.219148936 79.1208791"></polygon>
                    <polygon id="Path" points="55.3351064 100 102.890426 100 102.890426 79.1208791 96.0968085 79.1208791 96.0968085 20.8791209 102.890426 20.8791209 102.890426 0 55.3351064 0 55.3351064 20.8791209 62.1287234 20.8791209 62.1287234 40.6593407 52.8148936 40.6593407 52.8148936 57.6923077 62.1287234 57.8021978 62.1287234 79.1208791 55.3351064 79.1208791"></polygon>
                </g>
            </g>
        </g>
    </g>
</svg>